<svg xmlns="http://www.w3.org/2000/svg" xmlns:xlink="http://www.w3.org/1999/xlink" width="350" zoomAndPan="magnify" viewBox="0 0 262.5 52.499999" height="70" preserveAspectRatio="xMidYMid meet" version="1.0"><defs><clipPath id="8048062fe3"><path d="M 0.992188 0 L 235.011719 0 L 235.011719 52.003906 L 0.992188 52.003906 Z M 0.992188 0 " clip-rule="nonzero"/></clipPath><clipPath id="70a2185b57"><path d="M 0.992188 0 L 235.011719 0 L 235.011719 52.003906 L 0.992188 52.003906 Z M 0.992188 0 " clip-rule="nonzero"/></clipPath><clipPath id="dff857b8e4"><rect x="0" width="236" y="0" height="53"/></clipPath><clipPath id="b00e74e0cd"><path d="M 3.21875 2.230469 L 235.753906 2.230469 L 235.753906 49.777344 L 3.21875 49.777344 Z M 3.21875 2.230469 " clip-rule="nonzero"/></clipPath><clipPath id="6e7dd13596"><path d="M 0.21875 0.230469 L 232.753906 0.230469 L 232.753906 47.777344 L 0.21875 47.777344 Z M 0.21875 0.230469 " clip-rule="nonzero"/></clipPath><clipPath id="edd0704c70"><rect x="0" width="233" y="0" height="48"/></clipPath><clipPath id="b0a0443bd2"><path d="M 209.007812 0 L 261.015625 0 L 261.015625 52.003906 L 209.007812 52.003906 Z M 209.007812 0 " clip-rule="nonzero"/></clipPath><clipPath id="96d21befdd"><path d="M 235.011719 0 C 220.652344 0 209.007812 11.640625 209.007812 26.003906 C 209.007812 40.363281 220.652344 52.003906 235.011719 52.003906 C 249.371094 52.003906 261.015625 40.363281 261.015625 26.003906 C 261.015625 11.640625 249.371094 0 235.011719 0 Z M 235.011719 0 " clip-rule="nonzero"/></clipPath><clipPath id="aee4bddf7f"><path d="M 0.0078125 0 L 52.015625 0 L 52.015625 52.003906 L 0.0078125 52.003906 Z M 0.0078125 0 " clip-rule="nonzero"/></clipPath><clipPath id="94e6a44997"><path d="M 26.011719 0 C 11.652344 0 0.0078125 11.640625 0.0078125 26.003906 C 0.0078125 40.363281 11.652344 52.003906 26.011719 52.003906 C 40.371094 52.003906 52.015625 40.363281 52.015625 26.003906 C 52.015625 11.640625 40.371094 0 26.011719 0 Z M 26.011719 0 " clip-rule="nonzero"/></clipPath><clipPath id="6b2709e88b"><rect x="0" width="53" y="0" height="53"/></clipPath><clipPath id="4fe56f7b52"><path d="M 211.238281 2.398438 L 258.785156 2.398438 L 258.785156 49.945312 L 211.238281 49.945312 Z M 211.238281 2.398438 " clip-rule="nonzero"/></clipPath></defs><g clip-path="url(#8048062fe3)"><g transform="matrix(1, 0, 0, 1, 0.000000000000000222, 0)"><g clip-path="url(#dff857b8e4)"><g clip-path="url(#70a2185b57)"><path fill="#b89452" d="M -58.855469 0 L 235.09375 0 L 235.09375 52.003906 L -58.855469 52.003906 Z M -58.855469 0 " fill-opacity="1" fill-rule="nonzero"/></g></g></g></g><g clip-path="url(#b00e74e0cd)"><g transform="matrix(1, 0, 0, 1, 3, 2)"><g clip-path="url(#edd0704c70)"><g clip-path="url(#6e7dd13596)"><path fill="#2a231d" d="M 0.21875 0.230469 L 232.753906 0.230469 L 232.753906 47.777344 L 0.21875 47.777344 Z M 0.21875 0.230469 " fill-opacity="1" fill-rule="nonzero"/></g></g></g></g><g clip-path="url(#b0a0443bd2)"><g clip-path="url(#96d21befdd)"><g transform="matrix(1, 0, 0, 1, 209, 0)"><g clip-path="url(#6b2709e88b)"><g clip-path="url(#aee4bddf7f)"><g clip-path="url(#94e6a44997)"><path fill="#b89452" d="M 0.0078125 0 L 52.015625 0 L 52.015625 52.003906 L 0.0078125 52.003906 Z M 0.0078125 0 " fill-opacity="1" fill-rule="nonzero"/></g></g></g></g></g></g><g clip-path="url(#4fe56f7b52)"><path fill="#cac5c0" d="M 258.785156 26.171875 C 258.785156 26.949219 258.746094 27.726562 258.671875 28.5 C 258.59375 29.277344 258.480469 30.046875 258.328125 30.808594 C 258.175781 31.574219 257.988281 32.328125 257.761719 33.074219 C 257.535156 33.816406 257.273438 34.550781 256.976562 35.269531 C 256.679688 35.988281 256.34375 36.691406 255.976562 37.378906 C 255.609375 38.066406 255.210938 38.730469 254.777344 39.378906 C 254.347656 40.027344 253.882812 40.652344 253.390625 41.253906 C 252.894531 41.855469 252.371094 42.429688 251.820312 42.980469 C 251.273438 43.53125 250.695312 44.054688 250.09375 44.546875 C 249.492188 45.042969 248.867188 45.507812 248.21875 45.9375 C 247.574219 46.371094 246.90625 46.769531 246.21875 47.136719 C 245.53125 47.503906 244.828125 47.835938 244.109375 48.136719 C 243.390625 48.433594 242.65625 48.695312 241.914062 48.921875 C 241.167969 49.148438 240.414062 49.335938 239.648438 49.488281 C 238.886719 49.640625 238.117188 49.753906 237.34375 49.832031 C 236.566406 49.90625 235.789062 49.945312 235.011719 49.945312 C 234.234375 49.945312 233.457031 49.90625 232.679688 49.832031 C 231.90625 49.753906 231.136719 49.640625 230.375 49.488281 C 229.609375 49.335938 228.855469 49.148438 228.109375 48.921875 C 227.367188 48.695312 226.632812 48.433594 225.914062 48.136719 C 225.195312 47.835938 224.492188 47.503906 223.804688 47.136719 C 223.117188 46.769531 222.453125 46.371094 221.804688 45.9375 C 221.15625 45.507812 220.53125 45.042969 219.929688 44.546875 C 219.328125 44.054688 218.75 43.53125 218.203125 42.980469 C 217.652344 42.429688 217.128906 41.855469 216.632812 41.253906 C 216.140625 40.652344 215.675781 40.027344 215.246094 39.378906 C 214.8125 38.730469 214.414062 38.066406 214.046875 37.378906 C 213.679688 36.691406 213.347656 35.988281 213.046875 35.269531 C 212.75 34.550781 212.488281 33.816406 212.261719 33.074219 C 212.035156 32.328125 211.847656 31.574219 211.695312 30.808594 C 211.542969 30.046875 211.429688 29.277344 211.351562 28.5 C 211.277344 27.726562 211.238281 26.949219 211.238281 26.171875 C 211.238281 25.394531 211.277344 24.617188 211.351562 23.839844 C 211.429688 23.066406 211.542969 22.296875 211.695312 21.535156 C 211.847656 20.769531 212.035156 20.015625 212.261719 19.269531 C 212.488281 18.523438 212.75 17.792969 213.046875 17.074219 C 213.347656 16.355469 213.679688 15.652344 214.046875 14.964844 C 214.414062 14.277344 214.8125 13.609375 215.246094 12.964844 C 215.675781 12.316406 216.140625 11.691406 216.632812 11.089844 C 217.128906 10.488281 217.652344 9.910156 218.203125 9.359375 C 218.75 8.808594 219.328125 8.289062 219.929688 7.792969 C 220.53125 7.300781 221.15625 6.835938 221.804688 6.40625 C 222.453125 5.972656 223.117188 5.570312 223.804688 5.203125 C 224.492188 4.839844 225.195312 4.503906 225.914062 4.207031 C 226.632812 3.910156 227.367188 3.648438 228.109375 3.421875 C 228.855469 3.195312 229.609375 3.007812 230.375 2.855469 C 231.136719 2.703125 231.90625 2.589844 232.679688 2.511719 C 233.457031 2.4375 234.234375 2.398438 235.011719 2.398438 C 235.789062 2.398438 236.566406 2.4375 237.34375 2.511719 C 238.117188 2.589844 238.886719 2.703125 239.648438 2.855469 C 240.414062 3.007812 241.167969 3.195312 241.914062 3.421875 C 242.65625 3.648438 243.390625 3.910156 244.109375 4.207031 C 244.828125 4.503906 245.53125 4.839844 246.21875 5.203125 C 246.90625 5.570312 247.574219 5.972656 248.21875 6.40625 C 248.867188 6.835938 249.492188 7.300781 250.09375 7.792969 C 250.695312 8.289062 251.273438 8.808594 251.820312 9.359375 C 252.371094 9.910156 252.894531 10.488281 253.390625 11.089844 C 253.882812 11.691406 254.347656 12.316406 254.777344 12.964844 C 255.210938 13.609375 255.609375 14.277344 255.976562 14.964844 C 256.34375 15.652344 256.679688 16.355469 256.976562 17.074219 C 257.273438 17.792969 257.535156 18.523438 257.761719 19.269531 C 257.988281 20.015625 258.175781 20.769531 258.328125 21.535156 C 258.480469 22.296875 258.59375 23.066406 258.671875 23.839844 C 258.746094 24.617188 258.785156 25.394531 258.785156 26.171875 Z M 258.785156 26.171875 " fill-opacity="1" fill-rule="nonzero"/></g><path fill="#0d0f0f" d="M 251.8125 30.414062 L 234.691406 30.414062 L 240.960938 25.953125 C 238.632812 24.101562 235.9375 23.179688 232.886719 23.179688 C 231.359375 23.179688 230.3125 23.472656 229.753906 24.054688 C 229.191406 24.636719 228.90625 25.691406 228.90625 27.21875 C 228.90625 31.4375 231.078125 35.9375 235.417969 40.71875 L 230.476562 45.722656 C 224.726562 38.730469 221.855469 32.480469 221.855469 26.976562 C 221.855469 23.683594 222.847656 21.058594 224.839844 19.109375 C 226.824219 17.160156 229.472656 16.1875 232.761719 16.1875 C 236.78125 16.1875 241.160156 17.714844 245.90625 20.765625 L 249.582031 14.5 Z M 251.8125 30.414062 " fill-opacity="1" fill-rule="nonzero"/></svg>